<svg xmlns="http://www.w3.org/2000/svg" viewBox="0 0 860.32 860.32">
  <title>UL_1</title>
  <g id="Layer_2" data-name="Layer 2">
    <g id="Layer_2-2" data-name="Layer 2">
      <g>
        <rect x="350.62" width="71.42" height="71.42"/>
        <rect x="438.28" width="71.42" height="71.42"/>
        <rect x="175.31" y="87.66" width="71.42" height="71.42" fill="#4a4a4a"/>
        <rect x="262.97" y="87.66" width="71.42" height="71.42" fill="#4a4a4a"/>
        <rect x="350.62" y="87.66" width="71.42" height="71.42" fill="#4a4a4a"/>
        <rect x="438.28" y="87.66" width="71.42" height="71.42" fill="#4a4a4a"/>
        <rect x="525.93" y="87.66" width="71.42" height="71.42" fill="#4a4a4a"/>
        <rect x="613.59" y="87.66" width="71.42" height="71.42" fill="#4a4a4a"/>
        <rect x="87.66" y="175.31" width="71.42" height="71.42" fill="#4a4a4a"/>
        <rect x="175.31" y="175.31" width="71.42" height="71.42" fill="#4a4a4a"/>
        <rect x="262.97" y="175.31" width="71.42" height="71.42" fill="#4a4a4a"/>
        <rect x="350.62" y="175.31" width="71.42" height="71.42" fill="#4a4a4a"/>
        <rect x="438.28" y="175.31" width="71.42" height="71.42" fill="#4a4a4a"/>
        <rect x="525.93" y="175.31" width="71.42" height="71.42" fill="#4a4a4a"/>
        <rect x="613.59" y="175.31" width="71.42" height="71.42" fill="#4a4a4a"/>
        <rect x="701.24" y="175.31" width="71.42" height="71.42" fill="#4a4a4a"/>
        <rect x="87.66" y="262.97" width="71.42" height="71.42" fill="#4a4a4a"/>
        <rect x="175.31" y="262.97" width="71.42" height="71.42" fill="#4a4a4a"/>
        <rect x="262.97" y="262.97" width="71.42" height="71.42" fill="#4a4a4a"/>
        <rect x="350.62" y="262.97" width="71.42" height="71.42" fill="#4a4a4a"/>
        <rect x="438.28" y="262.97" width="71.42" height="71.42" fill="#4a4a4a"/>
        <rect x="525.93" y="262.97" width="71.42" height="71.42" fill="#4a4a4a"/>
        <rect x="613.59" y="262.97" width="71.42" height="71.42" fill="#4a4a4a"/>
        <rect x="701.24" y="262.97" width="71.42" height="71.42" fill="#4a4a4a"/>
        <rect y="350.62" width="71.42" height="71.42"/>
        <rect x="87.66" y="350.62" width="71.42" height="71.42" fill="#4a4a4a"/>
        <rect x="175.31" y="350.62" width="71.42" height="71.42" fill="#4a4a4a"/>
        <rect x="262.97" y="350.62" width="71.42" height="71.42" fill="#4a4a4a"/>
        <rect x="350.62" y="350.62" width="71.42" height="71.42" fill="#4a4a4a"/>
        <rect x="438.28" y="350.62" width="71.42" height="71.42" fill="#4a4a4a"/>
        <rect x="525.93" y="350.62" width="71.42" height="71.42" fill="#4a4a4a"/>
        <rect x="613.59" y="350.62" width="71.42" height="71.42" fill="#4a4a4a"/>
        <rect x="701.24" y="350.62" width="71.42" height="71.42" fill="#4a4a4a"/>
        <rect x="788.9" y="350.62" width="71.42" height="71.42" fill="#4a4a4a"/>
        <rect y="438.28" width="71.42" height="71.42"/>
        <rect x="87.66" y="438.28" width="71.42" height="71.42" fill="#4a4a4a"/>
        <rect x="175.31" y="438.28" width="71.42" height="71.42" fill="#4a4a4a"/>
        <rect x="262.97" y="438.28" width="71.42" height="71.42" fill="#4a4a4a"/>
        <rect x="350.62" y="438.28" width="71.42" height="71.42" fill="#4a4a4a"/>
        <rect x="438.28" y="438.28" width="71.42" height="71.42" fill="#4a4a4a"/>
        <rect x="525.93" y="438.28" width="71.42" height="71.42" fill="#4a4a4a"/>
        <rect x="613.59" y="438.28" width="71.42" height="71.42" fill="#4a4a4a"/>
        <rect x="701.24" y="438.28" width="71.42" height="71.42" fill="#4a4a4a"/>
        <rect x="788.9" y="438.28" width="71.42" height="71.42" fill="#4a4a4a"/>
        <rect x="87.66" y="525.93" width="71.42" height="71.42" fill="#4a4a4a"/>
        <rect x="175.31" y="525.93" width="71.42" height="71.42" fill="#4a4a4a"/>
        <rect x="262.97" y="525.93" width="71.42" height="71.42" fill="#4a4a4a"/>
        <rect x="350.62" y="525.93" width="71.42" height="71.42" fill="#4a4a4a"/>
        <rect x="438.28" y="525.93" width="71.42" height="71.42" fill="#4a4a4a"/>
        <rect x="525.93" y="525.93" width="71.42" height="71.42" fill="#4a4a4a"/>
        <rect x="613.59" y="525.93" width="71.42" height="71.42" fill="#4a4a4a"/>
        <rect x="701.24" y="525.93" width="71.42" height="71.42" fill="#4a4a4a"/>
        <rect x="87.66" y="613.59" width="71.42" height="71.42" fill="#4a4a4a"/>
        <rect x="175.31" y="613.59" width="71.42" height="71.42" fill="#4a4a4a"/>
        <rect x="262.97" y="613.59" width="71.42" height="71.42" fill="#4a4a4a"/>
        <rect x="350.62" y="613.59" width="71.42" height="71.42" fill="#4a4a4a"/>
        <rect x="438.28" y="613.59" width="71.42" height="71.42" fill="#4a4a4a"/>
        <rect x="525.93" y="613.59" width="71.42" height="71.42" fill="#4a4a4a"/>
        <rect x="613.59" y="613.59" width="71.42" height="71.42" fill="#4a4a4a"/>
        <rect x="701.24" y="613.59" width="71.42" height="71.42" fill="#4a4a4a"/>
        <rect x="175.31" y="701.24" width="71.42" height="71.42" fill="#4a4a4a"/>
        <rect x="262.97" y="701.24" width="71.42" height="71.42" fill="#4a4a4a"/>
        <rect x="350.62" y="701.24" width="71.42" height="71.42" fill="#4a4a4a"/>
        <rect x="438.28" y="701.24" width="71.42" height="71.42" fill="#4a4a4a"/>
        <rect x="525.93" y="701.24" width="71.42" height="71.42" fill="#4a4a4a"/>
        <rect x="613.59" y="701.24" width="71.42" height="71.42" fill="#4a4a4a"/>
        <rect x="350.62" y="788.9" width="71.42" height="71.42" fill="#4a4a4a"/>
        <rect x="438.28" y="788.9" width="71.42" height="71.42" fill="#4a4a4a"/>
        <rect width="71.42" height="71.42"/>
        <rect x="87.66" width="71.42" height="71.42"/>
        <rect x="175.31" width="71.42" height="71.42"/>
        <rect x="262.97" width="71.42" height="71.42"/>
        <rect x="525.93" width="71.42" height="71.42"/>
        <rect x="613.59" width="71.42" height="71.42"/>
        <rect x="701.24" width="71.42" height="71.42"/>
        <rect x="788.9" width="71.42" height="71.42"/>
        <rect y="87.66" width="71.42" height="71.42"/>
        <rect x="87.66" y="87.66" width="71.42" height="71.42"/>
        <rect x="701.24" y="87.66" width="71.42" height="71.42"/>
        <rect x="788.9" y="87.66" width="71.42" height="71.42"/>
        <rect y="175.31" width="71.42" height="71.42"/>
        <rect x="788.9" y="175.31" width="71.42" height="71.42"/>
        <rect y="262.97" width="71.42" height="71.42"/>
        <rect x="788.9" y="262.97" width="71.42" height="71.42"/>
        <rect y="525.93" width="71.42" height="71.42"/>
        <rect x="788.9" y="525.93" width="71.42" height="71.42"/>
        <rect y="613.59" width="71.42" height="71.42"/>
        <rect x="788.9" y="613.59" width="71.42" height="71.42"/>
        <rect y="701.24" width="71.42" height="71.42"/>
        <rect x="87.66" y="701.24" width="71.42" height="71.42"/>
        <rect x="701.24" y="701.24" width="71.42" height="71.42"/>
        <rect x="788.9" y="701.24" width="71.42" height="71.42"/>
        <rect y="788.9" width="71.42" height="71.42"/>
        <rect x="87.66" y="788.9" width="71.42" height="71.42"/>
        <rect x="175.31" y="788.9" width="71.42" height="71.42"/>
        <rect x="262.97" y="788.9" width="71.42" height="71.42"/>
        <rect x="525.93" y="788.9" width="71.42" height="71.42"/>
        <rect x="613.59" y="788.9" width="71.42" height="71.42"/>
        <rect x="701.24" y="788.9" width="71.42" height="71.42"/>
        <rect x="788.9" y="788.9" width="71.42" height="71.42"/>
      </g>
    </g>
  </g>
</svg>
