<svg xmlns="http://www.w3.org/2000/svg" viewBox="0 0 1024 1024">
  <title>UL_1</title>
  <g id="Layer_2" data-name="Layer 2">
    <g id="Layer_4" data-name="Layer 4">
      <g>
        <g>
          <rect x="2" y="2" width="60" height="60"/>
          <path d="M60,4V60H4V4H60m4-4H0V64H64V0Z" fill="#202020"/>
        </g>
        <g>
          <rect x="66" y="2" width="60" height="60"/>
          <path d="M124,4V60H68V4h56m4-4H64V64h64V0Z" fill="#202020"/>
        </g>
        <g>
          <rect x="130" y="2" width="60" height="60"/>
          <path d="M188,4V60H132V4h56m4-4H128V64h64V0Z" fill="#202020"/>
        </g>
        <g>
          <rect x="194" y="2" width="60" height="60"/>
          <path d="M252,4V60H196V4h56m4-4H192V64h64V0Z" fill="#202020"/>
        </g>
        <g>
          <rect x="258" y="2" width="60" height="60"/>
          <path d="M316,4V60H260V4h56m4-4H256V64h64V0Z" fill="#202020"/>
        </g>
        <g>
          <rect x="322" y="2" width="60" height="60"/>
          <path d="M380,4V60H324V4h56m4-4H320V64h64V0Z" fill="#202020"/>
        </g>
        <g>
          <rect x="386" y="2" width="60" height="60"/>
          <path d="M444,4V60H388V4h56m4-4H384V64h64V0Z" fill="#202020"/>
        </g>
        <g>
          <rect x="450" y="2" width="60" height="60"/>
          <path d="M508,4V60H452V4h56m4-4H448V64h64V0Z" fill="#202020"/>
        </g>
        <g>
          <rect x="514" y="2" width="60" height="60"/>
          <path d="M572,4V60H516V4h56m4-4H512V64h64V0Z" fill="#202020"/>
        </g>
        <g>
          <rect x="578" y="2" width="60" height="60"/>
          <path d="M636,4V60H580V4h56m4-4H576V64h64V0Z" fill="#202020"/>
        </g>
        <g>
          <rect x="642" y="2" width="60" height="60"/>
          <path d="M700,4V60H644V4h56m4-4H640V64h64V0Z" fill="#202020"/>
        </g>
        <g>
          <rect x="706" y="2" width="60" height="60"/>
          <path d="M764,4V60H708V4h56m4-4H704V64h64V0Z" fill="#202020"/>
        </g>
        <g>
          <rect x="770" y="2" width="60" height="60"/>
          <path d="M828,4V60H772V4h56m4-4H768V64h64V0Z" fill="#202020"/>
        </g>
        <g>
          <rect x="834" y="2" width="60" height="60"/>
          <path d="M892,4V60H836V4h56m4-4H832V64h64V0Z" fill="#202020"/>
        </g>
        <g>
          <rect x="898" y="2" width="60" height="60"/>
          <path d="M956,4V60H900V4h56m4-4H896V64h64V0Z" fill="#202020"/>
        </g>
        <g>
          <rect x="962" y="2" width="60" height="60"/>
          <path d="M1020,4V60H964V4h56m4-4H960V64h64V0Z" fill="#202020"/>
        </g>
        <g>
          <rect x="2" y="66" width="60" height="60"/>
          <path d="M60,68v56H4V68H60m4-4H0v64H64V64Z" fill="#202020"/>
        </g>
        <g>
          <rect x="66" y="66" width="60" height="60"/>
          <path d="M124,68v56H68V68h56m4-4H64v64h64V64Z" fill="#202020"/>
        </g>
        <g>
          <rect x="898" y="66" width="60" height="60"/>
          <path d="M956,68v56H900V68h56m4-4H896v64h64V64Z" fill="#202020"/>
        </g>
        <g>
          <rect x="962" y="66" width="60" height="60"/>
          <path d="M1020,68v56H964V68h56m4-4H960v64h64V64Z" fill="#202020"/>
        </g>
        <g>
          <rect x="2" y="130" width="60" height="60"/>
          <path d="M60,132v56H4V132H60m4-4H0v64H64V128Z" fill="#202020"/>
        </g>
        <g>
          <rect x="962" y="130" width="60" height="60"/>
          <path d="M1020,132v56H964V132h56m4-4H960v64h64V128Z" fill="#202020"/>
        </g>
        <g>
          <rect x="2" y="194" width="60" height="60"/>
          <path d="M60,196v56H4V196H60m4-4H0v64H64V192Z" fill="#202020"/>
        </g>
        <g>
          <rect x="962" y="194" width="60" height="60"/>
          <path d="M1020,196v56H964V196h56m4-4H960v64h64V192Z" fill="#202020"/>
        </g>
        <g>
          <rect x="2" y="258" width="60" height="60"/>
          <path d="M60,260v56H4V260H60m4-4H0v64H64V256Z" fill="#202020"/>
        </g>
        <g>
          <rect x="962" y="258" width="60" height="60"/>
          <path d="M1020,260v56H964V260h56m4-4H960v64h64V256Z" fill="#202020"/>
        </g>
        <g>
          <rect x="2" y="322" width="60" height="60"/>
          <path d="M60,324v56H4V324H60m4-4H0v64H64V320Z" fill="#202020"/>
        </g>
        <g>
          <rect x="962" y="322" width="60" height="60"/>
          <path d="M1020,324v56H964V324h56m4-4H960v64h64V320Z" fill="#202020"/>
        </g>
        <g>
          <rect x="2" y="386" width="60" height="60"/>
          <path d="M60,388v56H4V388H60m4-4H0v64H64V384Z" fill="#202020"/>
        </g>
        <g>
          <rect x="962" y="386" width="60" height="60"/>
          <path d="M1020,388v56H964V388h56m4-4H960v64h64V384Z" fill="#202020"/>
        </g>
        <g>
          <rect x="2" y="450" width="60" height="60"/>
          <path d="M60,452v56H4V452H60m4-4H0v64H64V448Z" fill="#202020"/>
        </g>
        <g>
          <rect x="2" y="514" width="60" height="60"/>
          <path d="M60,516v56H4V516H60m4-4H0v64H64V512Z" fill="#202020"/>
        </g>
        <g>
          <rect x="2" y="578" width="60" height="60"/>
          <path d="M60,580v56H4V580H60m4-4H0v64H64V576Z" fill="#202020"/>
        </g>
        <g>
          <rect x="962" y="578" width="60" height="60"/>
          <path d="M1020,580v56H964V580h56m4-4H960v64h64V576Z" fill="#202020"/>
        </g>
        <g>
          <rect x="2" y="642" width="60" height="60"/>
          <path d="M60,644v56H4V644H60m4-4H0v64H64V640Z" fill="#202020"/>
        </g>
        <g>
          <rect x="962" y="642" width="60" height="60"/>
          <path d="M1020,644v56H964V644h56m4-4H960v64h64V640Z" fill="#202020"/>
        </g>
        <g>
          <rect x="2" y="706" width="60" height="60"/>
          <path d="M60,708v56H4V708H60m4-4H0v64H64V704Z" fill="#202020"/>
        </g>
        <g>
          <rect x="962" y="706" width="60" height="60"/>
          <path d="M1020,708v56H964V708h56m4-4H960v64h64V704Z" fill="#202020"/>
        </g>
        <g>
          <rect x="2" y="770" width="60" height="60"/>
          <path d="M60,772v56H4V772H60m4-4H0v64H64V768Z" fill="#202020"/>
        </g>
        <g>
          <rect x="962" y="770" width="60" height="60"/>
          <path d="M1020,772v56H964V772h56m4-4H960v64h64V768Z" fill="#202020"/>
        </g>
        <g>
          <rect x="2" y="834" width="60" height="60"/>
          <path d="M60,836v56H4V836H60m4-4H0v64H64V832Z" fill="#202020"/>
        </g>
        <g>
          <rect x="962" y="834" width="60" height="60"/>
          <path d="M1020,836v56H964V836h56m4-4H960v64h64V832Z" fill="#202020"/>
        </g>
        <g>
          <rect x="2" y="898" width="60" height="60"/>
          <path d="M60,900v56H4V900H60m4-4H0v64H64V896Z" fill="#202020"/>
        </g>
        <g>
          <rect x="66" y="898" width="60" height="60"/>
          <path d="M124,900v56H68V900h56m4-4H64v64h64V896Z" fill="#202020"/>
        </g>
        <g>
          <rect x="898" y="898" width="60" height="60"/>
          <path d="M956,900v56H900V900h56m4-4H896v64h64V896Z" fill="#202020"/>
        </g>
        <g>
          <rect x="962" y="898" width="60" height="60"/>
          <path d="M1020,900v56H964V900h56m4-4H960v64h64V896Z" fill="#202020"/>
        </g>
        <g>
          <rect x="2" y="962" width="60" height="60"/>
          <path d="M60,964v56H4V964H60m4-4H0v64H64V960Z" fill="#202020"/>
        </g>
        <g>
          <rect x="66" y="962" width="60" height="60"/>
          <path d="M124,964v56H68V964h56m4-4H64v64h64V960Z" fill="#202020"/>
        </g>
        <g>
          <rect x="130" y="962" width="60" height="60"/>
          <path d="M188,964v56H132V964h56m4-4H128v64h64V960Z" fill="#202020"/>
        </g>
        <g>
          <rect x="194" y="962" width="60" height="60"/>
          <path d="M252,964v56H196V964h56m4-4H192v64h64V960Z" fill="#202020"/>
        </g>
        <g>
          <rect x="258" y="962" width="60" height="60"/>
          <path d="M316,964v56H260V964h56m4-4H256v64h64V960Z" fill="#202020"/>
        </g>
        <g>
          <rect x="322" y="962" width="60" height="60"/>
          <path d="M380,964v56H324V964h56m4-4H320v64h64V960Z" fill="#202020"/>
        </g>
        <g>
          <rect x="386" y="962" width="60" height="60"/>
          <path d="M444,964v56H388V964h56m4-4H384v64h64V960Z" fill="#202020"/>
        </g>
        <g>
          <rect x="578" y="962" width="60" height="60"/>
          <path d="M636,964v56H580V964h56m4-4H576v64h64V960Z" fill="#202020"/>
        </g>
        <g>
          <rect x="642" y="962" width="60" height="60"/>
          <path d="M700,964v56H644V964h56m4-4H640v64h64V960Z" fill="#202020"/>
        </g>
        <g>
          <rect x="706" y="962" width="60" height="60"/>
          <path d="M764,964v56H708V964h56m4-4H704v64h64V960Z" fill="#202020"/>
        </g>
        <g>
          <rect x="770" y="962" width="60" height="60"/>
          <path d="M828,964v56H772V964h56m4-4H768v64h64V960Z" fill="#202020"/>
        </g>
        <g>
          <rect x="834" y="962" width="60" height="60"/>
          <path d="M892,964v56H836V964h56m4-4H832v64h64V960Z" fill="#202020"/>
        </g>
        <g>
          <rect x="898" y="962" width="60" height="60"/>
          <path d="M956,964v56H900V964h56m4-4H896v64h64V960Z" fill="#202020"/>
        </g>
        <g>
          <rect x="962" y="962" width="60" height="60"/>
          <path d="M1020,964v56H964V964h56m4-4H960v64h64V960Z" fill="#202020"/>
        </g>
        <g>
          <rect x="130" y="66" width="60" height="60" fill="#4a4a4a"/>
          <path d="M188,68v56H132V68h56m4-4H128v64h64V64Z" fill="#202020"/>
        </g>
        <g>
          <rect x="194" y="66" width="60" height="60" fill="#4a4a4a"/>
          <path d="M252,68v56H196V68h56m4-4H192v64h64V64Z" fill="#202020"/>
        </g>
        <g>
          <rect x="258" y="66" width="60" height="60" fill="#4a4a4a"/>
          <path d="M316,68v56H260V68h56m4-4H256v64h64V64Z" fill="#202020"/>
        </g>
        <g>
          <rect x="322" y="66" width="60" height="60" fill="#4a4a4a"/>
          <path d="M380,68v56H324V68h56m4-4H320v64h64V64Z" fill="#202020"/>
        </g>
        <g>
          <rect x="386" y="66" width="60" height="60" fill="#4a4a4a"/>
          <path d="M444,68v56H388V68h56m4-4H384v64h64V64Z" fill="#202020"/>
        </g>
        <g>
          <rect x="450" y="66" width="60" height="60" fill="#4a4a4a"/>
          <path d="M508,68v56H452V68h56m4-4H448v64h64V64Z" fill="#202020"/>
        </g>
        <g>
          <rect x="514" y="66" width="60" height="60" fill="#4a4a4a"/>
          <path d="M572,68v56H516V68h56m4-4H512v64h64V64Z" fill="#202020"/>
        </g>
        <g>
          <rect x="578" y="66" width="60" height="60" fill="#4a4a4a"/>
          <path d="M636,68v56H580V68h56m4-4H576v64h64V64Z" fill="#202020"/>
        </g>
        <g>
          <rect x="642" y="66" width="60" height="60" fill="#4a4a4a"/>
          <path d="M700,68v56H644V68h56m4-4H640v64h64V64Z" fill="#202020"/>
        </g>
        <g>
          <rect x="706" y="66" width="60" height="60" fill="#4a4a4a"/>
          <path d="M764,68v56H708V68h56m4-4H704v64h64V64Z" fill="#202020"/>
        </g>
        <g>
          <rect x="770" y="66" width="60" height="60" fill="#4a4a4a"/>
          <path d="M828,68v56H772V68h56m4-4H768v64h64V64Z" fill="#202020"/>
        </g>
        <g>
          <rect x="834" y="66" width="60" height="60" fill="#4a4a4a"/>
          <path d="M892,68v56H836V68h56m4-4H832v64h64V64Z" fill="#202020"/>
        </g>
        <g>
          <rect x="66" y="130" width="60" height="60" fill="#4a4a4a"/>
          <path d="M124,132v56H68V132h56m4-4H64v64h64V128Z" fill="#202020"/>
        </g>
        <g>
          <rect x="130" y="130" width="60" height="60" fill="#4a4a4a"/>
          <path d="M188,132v56H132V132h56m4-4H128v64h64V128Z" fill="#202020"/>
        </g>
        <g>
          <rect x="194" y="130" width="60" height="60" fill="#4a4a4a"/>
          <path d="M252,132v56H196V132h56m4-4H192v64h64V128Z" fill="#202020"/>
        </g>
        <g>
          <rect x="258" y="130" width="60" height="60" fill="#4a4a4a"/>
          <path d="M316,132v56H260V132h56m4-4H256v64h64V128Z" fill="#202020"/>
        </g>
        <g>
          <rect x="322" y="130" width="60" height="60" fill="#4a4a4a"/>
          <path d="M380,132v56H324V132h56m4-4H320v64h64V128Z" fill="#202020"/>
        </g>
        <g>
          <rect x="386" y="130" width="60" height="60" fill="#4a4a4a"/>
          <path d="M444,132v56H388V132h56m4-4H384v64h64V128Z" fill="#202020"/>
        </g>
        <g>
          <rect x="450" y="130" width="60" height="60" fill="#4a4a4a"/>
          <path d="M508,132v56H452V132h56m4-4H448v64h64V128Z" fill="#202020"/>
        </g>
        <g>
          <rect x="514" y="130" width="60" height="60" fill="#4a4a4a"/>
          <path d="M572,132v56H516V132h56m4-4H512v64h64V128Z" fill="#202020"/>
        </g>
        <g>
          <rect x="578" y="130" width="60" height="60" fill="#4a4a4a"/>
          <path d="M636,132v56H580V132h56m4-4H576v64h64V128Z" fill="#202020"/>
        </g>
        <g>
          <rect x="642" y="130" width="60" height="60" fill="#4a4a4a"/>
          <path d="M700,132v56H644V132h56m4-4H640v64h64V128Z" fill="#202020"/>
        </g>
        <g>
          <rect x="706" y="130" width="60" height="60" fill="#4a4a4a"/>
          <path d="M764,132v56H708V132h56m4-4H704v64h64V128Z" fill="#202020"/>
        </g>
        <g>
          <rect x="770" y="130" width="60" height="60" fill="#4a4a4a"/>
          <path d="M828,132v56H772V132h56m4-4H768v64h64V128Z" fill="#202020"/>
        </g>
        <g>
          <rect x="834" y="130" width="60" height="60" fill="#4a4a4a"/>
          <path d="M892,132v56H836V132h56m4-4H832v64h64V128Z" fill="#202020"/>
        </g>
        <g>
          <rect x="898" y="130" width="60" height="60" fill="#4a4a4a"/>
          <path d="M956,132v56H900V132h56m4-4H896v64h64V128Z" fill="#202020"/>
        </g>
        <g>
          <rect x="66" y="194" width="60" height="60" fill="#4a4a4a"/>
          <path d="M124,196v56H68V196h56m4-4H64v64h64V192Z" fill="#202020"/>
        </g>
        <g>
          <rect x="130" y="194" width="60" height="60" fill="#4a4a4a"/>
          <path d="M188,196v56H132V196h56m4-4H128v64h64V192Z" fill="#202020"/>
        </g>
        <g>
          <rect x="194" y="194" width="60" height="60" fill="#4a4a4a"/>
          <path d="M252,196v56H196V196h56m4-4H192v64h64V192Z" fill="#202020"/>
        </g>
        <g>
          <rect x="258" y="194" width="60" height="60" fill="#4a4a4a"/>
          <path d="M316,196v56H260V196h56m4-4H256v64h64V192Z" fill="#202020"/>
        </g>
        <g>
          <rect x="322" y="194" width="60" height="60" fill="#4a4a4a"/>
          <path d="M380,196v56H324V196h56m4-4H320v64h64V192Z" fill="#202020"/>
        </g>
        <g>
          <rect x="386" y="194" width="60" height="60" fill="#4a4a4a"/>
          <path d="M444,196v56H388V196h56m4-4H384v64h64V192Z" fill="#202020"/>
        </g>
        <g>
          <rect x="450" y="194" width="60" height="60" fill="#4a4a4a"/>
          <path d="M508,196v56H452V196h56m4-4H448v64h64V192Z" fill="#202020"/>
        </g>
        <g>
          <rect x="514" y="194" width="60" height="60" fill="#4a4a4a"/>
          <path d="M572,196v56H516V196h56m4-4H512v64h64V192Z" fill="#202020"/>
        </g>
        <g>
          <rect x="578" y="194" width="60" height="60" fill="#4a4a4a"/>
          <path d="M636,196v56H580V196h56m4-4H576v64h64V192Z" fill="#202020"/>
        </g>
        <g>
          <rect x="642" y="194" width="60" height="60" fill="#4a4a4a"/>
          <path d="M700,196v56H644V196h56m4-4H640v64h64V192Z" fill="#202020"/>
        </g>
        <g>
          <rect x="706" y="194" width="60" height="60" fill="#4a4a4a"/>
          <path d="M764,196v56H708V196h56m4-4H704v64h64V192Z" fill="#202020"/>
        </g>
        <g>
          <rect x="770" y="194" width="60" height="60" fill="#4a4a4a"/>
          <path d="M828,196v56H772V196h56m4-4H768v64h64V192Z" fill="#202020"/>
        </g>
        <g>
          <rect x="834" y="194" width="60" height="60" fill="#4a4a4a"/>
          <path d="M892,196v56H836V196h56m4-4H832v64h64V192Z" fill="#202020"/>
        </g>
        <g>
          <rect x="898" y="194" width="60" height="60" fill="#4a4a4a"/>
          <path d="M956,196v56H900V196h56m4-4H896v64h64V192Z" fill="#202020"/>
        </g>
        <g>
          <rect x="66" y="258" width="60" height="60" fill="#4a4a4a"/>
          <path d="M124,260v56H68V260h56m4-4H64v64h64V256Z" fill="#202020"/>
        </g>
        <g>
          <rect x="130" y="258" width="60" height="60" fill="#4a4a4a"/>
          <path d="M188,260v56H132V260h56m4-4H128v64h64V256Z" fill="#202020"/>
        </g>
        <g>
          <rect x="194" y="258" width="60" height="60" fill="#4a4a4a"/>
          <path d="M252,260v56H196V260h56m4-4H192v64h64V256Z" fill="#202020"/>
        </g>
        <g>
          <rect x="258" y="258" width="60" height="60" fill="#4a4a4a"/>
          <path d="M316,260v56H260V260h56m4-4H256v64h64V256Z" fill="#202020"/>
        </g>
        <g>
          <rect x="322" y="258" width="60" height="60" fill="#4a4a4a"/>
          <path d="M380,260v56H324V260h56m4-4H320v64h64V256Z" fill="#202020"/>
        </g>
        <g>
          <rect x="386" y="258" width="60" height="60" fill="#4a4a4a"/>
          <path d="M444,260v56H388V260h56m4-4H384v64h64V256Z" fill="#202020"/>
        </g>
        <g>
          <rect x="450" y="258" width="60" height="60" fill="#4a4a4a"/>
          <path d="M508,260v56H452V260h56m4-4H448v64h64V256Z" fill="#202020"/>
        </g>
        <g>
          <rect x="514" y="258" width="60" height="60" fill="#4a4a4a"/>
          <path d="M572,260v56H516V260h56m4-4H512v64h64V256Z" fill="#202020"/>
        </g>
        <g>
          <rect x="578" y="258" width="60" height="60" fill="#4a4a4a"/>
          <path d="M636,260v56H580V260h56m4-4H576v64h64V256Z" fill="#202020"/>
        </g>
        <g>
          <rect x="642" y="258" width="60" height="60" fill="#4a4a4a"/>
          <path d="M700,260v56H644V260h56m4-4H640v64h64V256Z" fill="#202020"/>
        </g>
        <g>
          <rect x="706" y="258" width="60" height="60" fill="#4a4a4a"/>
          <path d="M764,260v56H708V260h56m4-4H704v64h64V256Z" fill="#202020"/>
        </g>
        <g>
          <rect x="770" y="258" width="60" height="60" fill="#4a4a4a"/>
          <path d="M828,260v56H772V260h56m4-4H768v64h64V256Z" fill="#202020"/>
        </g>
        <g>
          <rect x="834" y="258" width="60" height="60" fill="#4a4a4a"/>
          <path d="M892,260v56H836V260h56m4-4H832v64h64V256Z" fill="#202020"/>
        </g>
        <g>
          <rect x="898" y="258" width="60" height="60" fill="#4a4a4a"/>
          <path d="M956,260v56H900V260h56m4-4H896v64h64V256Z" fill="#202020"/>
        </g>
        <g>
          <rect x="66" y="322" width="60" height="60" fill="#4a4a4a"/>
          <path d="M124,324v56H68V324h56m4-4H64v64h64V320Z" fill="#202020"/>
        </g>
        <g>
          <rect x="130" y="322" width="60" height="60" fill="#4a4a4a"/>
          <path d="M188,324v56H132V324h56m4-4H128v64h64V320Z" fill="#202020"/>
        </g>
        <g>
          <rect x="194" y="322" width="60" height="60" fill="#4a4a4a"/>
          <path d="M252,324v56H196V324h56m4-4H192v64h64V320Z" fill="#202020"/>
        </g>
        <g>
          <rect x="258" y="322" width="60" height="60" fill="#4a4a4a"/>
          <path d="M316,324v56H260V324h56m4-4H256v64h64V320Z" fill="#202020"/>
        </g>
        <g>
          <rect x="322" y="322" width="60" height="60" fill="#4a4a4a"/>
          <path d="M380,324v56H324V324h56m4-4H320v64h64V320Z" fill="#202020"/>
        </g>
        <g>
          <rect x="386" y="322" width="60" height="60" fill="#4a4a4a"/>
          <path d="M444,324v56H388V324h56m4-4H384v64h64V320Z" fill="#202020"/>
        </g>
        <g>
          <rect x="450" y="322" width="60" height="60" fill="#4a4a4a"/>
          <path d="M508,324v56H452V324h56m4-4H448v64h64V320Z" fill="#202020"/>
        </g>
        <g>
          <rect x="514" y="322" width="60" height="60" fill="#4a4a4a"/>
          <path d="M572,324v56H516V324h56m4-4H512v64h64V320Z" fill="#202020"/>
        </g>
        <g>
          <rect x="578" y="322" width="60" height="60" fill="#4a4a4a"/>
          <path d="M636,324v56H580V324h56m4-4H576v64h64V320Z" fill="#202020"/>
        </g>
        <g>
          <rect x="642" y="322" width="60" height="60" fill="#4a4a4a"/>
          <path d="M700,324v56H644V324h56m4-4H640v64h64V320Z" fill="#202020"/>
        </g>
        <g>
          <rect x="706" y="322" width="60" height="60" fill="#4a4a4a"/>
          <path d="M764,324v56H708V324h56m4-4H704v64h64V320Z" fill="#202020"/>
        </g>
        <g>
          <rect x="770" y="322" width="60" height="60" fill="#4a4a4a"/>
          <path d="M828,324v56H772V324h56m4-4H768v64h64V320Z" fill="#202020"/>
        </g>
        <g>
          <rect x="834" y="322" width="60" height="60" fill="#4a4a4a"/>
          <path d="M892,324v56H836V324h56m4-4H832v64h64V320Z" fill="#202020"/>
        </g>
        <g>
          <rect x="898" y="322" width="60" height="60" fill="#4a4a4a"/>
          <path d="M956,324v56H900V324h56m4-4H896v64h64V320Z" fill="#202020"/>
        </g>
        <g>
          <rect x="66" y="386" width="60" height="60" fill="#4a4a4a"/>
          <path d="M124,388v56H68V388h56m4-4H64v64h64V384Z" fill="#202020"/>
        </g>
        <g>
          <rect x="130" y="386" width="60" height="60" fill="#4a4a4a"/>
          <path d="M188,388v56H132V388h56m4-4H128v64h64V384Z" fill="#202020"/>
        </g>
        <g>
          <rect x="194" y="386" width="60" height="60" fill="#4a4a4a"/>
          <path d="M252,388v56H196V388h56m4-4H192v64h64V384Z" fill="#202020"/>
        </g>
        <g>
          <rect x="258" y="386" width="60" height="60" fill="#4a4a4a"/>
          <path d="M316,388v56H260V388h56m4-4H256v64h64V384Z" fill="#202020"/>
        </g>
        <g>
          <rect x="322" y="386" width="60" height="60" fill="#4a4a4a"/>
          <path d="M380,388v56H324V388h56m4-4H320v64h64V384Z" fill="#202020"/>
        </g>
        <g>
          <rect x="386" y="386" width="60" height="60" fill="#4a4a4a"/>
          <path d="M444,388v56H388V388h56m4-4H384v64h64V384Z" fill="#202020"/>
        </g>
        <g>
          <rect x="450" y="386" width="60" height="60" fill="#4a4a4a"/>
          <path d="M508,388v56H452V388h56m4-4H448v64h64V384Z" fill="#202020"/>
        </g>
        <g>
          <rect x="514" y="386" width="60" height="60" fill="#4a4a4a"/>
          <path d="M572,388v56H516V388h56m4-4H512v64h64V384Z" fill="#202020"/>
        </g>
        <g>
          <rect x="578" y="386" width="60" height="60" fill="#4a4a4a"/>
          <path d="M636,388v56H580V388h56m4-4H576v64h64V384Z" fill="#202020"/>
        </g>
        <g>
          <rect x="642" y="386" width="60" height="60" fill="#4a4a4a"/>
          <path d="M700,388v56H644V388h56m4-4H640v64h64V384Z" fill="#202020"/>
        </g>
        <g>
          <rect x="706" y="386" width="60" height="60" fill="#4a4a4a"/>
          <path d="M764,388v56H708V388h56m4-4H704v64h64V384Z" fill="#202020"/>
        </g>
        <g>
          <rect x="770" y="386" width="60" height="60" fill="#4a4a4a"/>
          <path d="M828,388v56H772V388h56m4-4H768v64h64V384Z" fill="#202020"/>
        </g>
        <g>
          <rect x="834" y="386" width="60" height="60" fill="#4a4a4a"/>
          <path d="M892,388v56H836V388h56m4-4H832v64h64V384Z" fill="#202020"/>
        </g>
        <g>
          <rect x="898" y="386" width="60" height="60" fill="#4a4a4a"/>
          <path d="M956,388v56H900V388h56m4-4H896v64h64V384Z" fill="#202020"/>
        </g>
        <g>
          <rect x="66" y="450" width="60" height="60" fill="#4a4a4a"/>
          <path d="M124,452v56H68V452h56m4-4H64v64h64V448Z" fill="#202020"/>
        </g>
        <g>
          <rect x="130" y="450" width="60" height="60" fill="#4a4a4a"/>
          <path d="M188,452v56H132V452h56m4-4H128v64h64V448Z" fill="#202020"/>
        </g>
        <g>
          <rect x="194" y="450" width="60" height="60" fill="#4a4a4a"/>
          <path d="M252,452v56H196V452h56m4-4H192v64h64V448Z" fill="#202020"/>
        </g>
        <g>
          <rect x="258" y="450" width="60" height="60" fill="#4a4a4a"/>
          <path d="M316,452v56H260V452h56m4-4H256v64h64V448Z" fill="#202020"/>
        </g>
        <g>
          <rect x="322" y="450" width="60" height="60" fill="#4a4a4a"/>
          <path d="M380,452v56H324V452h56m4-4H320v64h64V448Z" fill="#202020"/>
        </g>
        <g>
          <rect x="386" y="450" width="60" height="60" fill="#4a4a4a"/>
          <path d="M444,452v56H388V452h56m4-4H384v64h64V448Z" fill="#202020"/>
        </g>
        <g>
          <rect x="450" y="450" width="60" height="60" fill="#4a4a4a"/>
          <path d="M508,452v56H452V452h56m4-4H448v64h64V448Z" fill="#202020"/>
        </g>
        <g>
          <rect x="514" y="450" width="60" height="60" fill="#4a4a4a"/>
          <path d="M572,452v56H516V452h56m4-4H512v64h64V448Z" fill="#202020"/>
        </g>
        <g>
          <rect x="578" y="450" width="60" height="60" fill="#4a4a4a"/>
          <path d="M636,452v56H580V452h56m4-4H576v64h64V448Z" fill="#202020"/>
        </g>
        <g>
          <rect x="642" y="450" width="60" height="60" fill="#4a4a4a"/>
          <path d="M700,452v56H644V452h56m4-4H640v64h64V448Z" fill="#202020"/>
        </g>
        <g>
          <rect x="706" y="450" width="60" height="60" fill="#4a4a4a"/>
          <path d="M764,452v56H708V452h56m4-4H704v64h64V448Z" fill="#202020"/>
        </g>
        <g>
          <rect x="770" y="450" width="60" height="60" fill="#4a4a4a"/>
          <path d="M828,452v56H772V452h56m4-4H768v64h64V448Z" fill="#202020"/>
        </g>
        <g>
          <rect x="834" y="450" width="60" height="60" fill="#4a4a4a"/>
          <path d="M892,452v56H836V452h56m4-4H832v64h64V448Z" fill="#202020"/>
        </g>
        <g>
          <rect x="898" y="450" width="60" height="60" fill="#4a4a4a"/>
          <path d="M956,452v56H900V452h56m4-4H896v64h64V448Z" fill="#202020"/>
        </g>
        <g>
          <rect x="962" y="450" width="60" height="60" fill="#4a4a4a"/>
          <path d="M1020,452v56H964V452h56m4-4H960v64h64V448Z" fill="#202020"/>
        </g>
        <g>
          <rect x="66" y="514" width="60" height="60" fill="#4a4a4a"/>
          <path d="M124,516v56H68V516h56m4-4H64v64h64V512Z" fill="#202020"/>
        </g>
        <g>
          <rect x="130" y="514" width="60" height="60" fill="#4a4a4a"/>
          <path d="M188,516v56H132V516h56m4-4H128v64h64V512Z" fill="#202020"/>
        </g>
        <g>
          <rect x="194" y="514" width="60" height="60" fill="#4a4a4a"/>
          <path d="M252,516v56H196V516h56m4-4H192v64h64V512Z" fill="#202020"/>
        </g>
        <g>
          <rect x="258" y="514" width="60" height="60" fill="#4a4a4a"/>
          <path d="M316,516v56H260V516h56m4-4H256v64h64V512Z" fill="#202020"/>
        </g>
        <g>
          <rect x="322" y="514" width="60" height="60" fill="#4a4a4a"/>
          <path d="M380,516v56H324V516h56m4-4H320v64h64V512Z" fill="#202020"/>
        </g>
        <g>
          <rect x="386" y="514" width="60" height="60" fill="#4a4a4a"/>
          <path d="M444,516v56H388V516h56m4-4H384v64h64V512Z" fill="#202020"/>
        </g>
        <g>
          <rect x="450" y="514" width="60" height="60" fill="#4a4a4a"/>
          <path d="M508,516v56H452V516h56m4-4H448v64h64V512Z" fill="#202020"/>
        </g>
        <g>
          <rect x="514" y="514" width="60" height="60" fill="#4a4a4a"/>
          <path d="M572,516v56H516V516h56m4-4H512v64h64V512Z" fill="#202020"/>
        </g>
        <g>
          <rect x="578" y="514" width="60" height="60" fill="#4a4a4a"/>
          <path d="M636,516v56H580V516h56m4-4H576v64h64V512Z" fill="#202020"/>
        </g>
        <g>
          <rect x="642" y="514" width="60" height="60" fill="#4a4a4a"/>
          <path d="M700,516v56H644V516h56m4-4H640v64h64V512Z" fill="#202020"/>
        </g>
        <g>
          <rect x="706" y="514" width="60" height="60" fill="#4a4a4a"/>
          <path d="M764,516v56H708V516h56m4-4H704v64h64V512Z" fill="#202020"/>
        </g>
        <g>
          <rect x="770" y="514" width="60" height="60" fill="#4a4a4a"/>
          <path d="M828,516v56H772V516h56m4-4H768v64h64V512Z" fill="#202020"/>
        </g>
        <g>
          <rect x="834" y="514" width="60" height="60" fill="#4a4a4a"/>
          <path d="M892,516v56H836V516h56m4-4H832v64h64V512Z" fill="#202020"/>
        </g>
        <g>
          <rect x="898" y="514" width="60" height="60" fill="#4a4a4a"/>
          <path d="M956,516v56H900V516h56m4-4H896v64h64V512Z" fill="#202020"/>
        </g>
        <g>
          <rect x="962" y="514" width="60" height="60" fill="#4a4a4a"/>
          <path d="M1020,516v56H964V516h56m4-4H960v64h64V512Z" fill="#202020"/>
        </g>
        <g>
          <rect x="66" y="578" width="60" height="60" fill="#4a4a4a"/>
          <path d="M124,580v56H68V580h56m4-4H64v64h64V576Z" fill="#202020"/>
        </g>
        <g>
          <rect x="130" y="578" width="60" height="60" fill="#4a4a4a"/>
          <path d="M188,580v56H132V580h56m4-4H128v64h64V576Z" fill="#202020"/>
        </g>
        <g>
          <rect x="194" y="578" width="60" height="60" fill="#4a4a4a"/>
          <path d="M252,580v56H196V580h56m4-4H192v64h64V576Z" fill="#202020"/>
        </g>
        <g>
          <rect x="258" y="578" width="60" height="60" fill="#4a4a4a"/>
          <path d="M316,580v56H260V580h56m4-4H256v64h64V576Z" fill="#202020"/>
        </g>
        <g>
          <rect x="322" y="578" width="60" height="60" fill="#4a4a4a"/>
          <path d="M380,580v56H324V580h56m4-4H320v64h64V576Z" fill="#202020"/>
        </g>
        <g>
          <rect x="386" y="578" width="60" height="60" fill="#4a4a4a"/>
          <path d="M444,580v56H388V580h56m4-4H384v64h64V576Z" fill="#202020"/>
        </g>
        <g>
          <rect x="450" y="578" width="60" height="60" fill="#4a4a4a"/>
          <path d="M508,580v56H452V580h56m4-4H448v64h64V576Z" fill="#202020"/>
        </g>
        <g>
          <rect x="514" y="578" width="60" height="60" fill="#4a4a4a"/>
          <path d="M572,580v56H516V580h56m4-4H512v64h64V576Z" fill="#202020"/>
        </g>
        <g>
          <rect x="578" y="578" width="60" height="60" fill="#4a4a4a"/>
          <path d="M636,580v56H580V580h56m4-4H576v64h64V576Z" fill="#202020"/>
        </g>
        <g>
          <rect x="642" y="578" width="60" height="60" fill="#4a4a4a"/>
          <path d="M700,580v56H644V580h56m4-4H640v64h64V576Z" fill="#202020"/>
        </g>
        <g>
          <rect x="706" y="578" width="60" height="60" fill="#4a4a4a"/>
          <path d="M764,580v56H708V580h56m4-4H704v64h64V576Z" fill="#202020"/>
        </g>
        <g>
          <rect x="770" y="578" width="60" height="60" fill="#4a4a4a"/>
          <path d="M828,580v56H772V580h56m4-4H768v64h64V576Z" fill="#202020"/>
        </g>
        <g>
          <rect x="834" y="578" width="60" height="60" fill="#4a4a4a"/>
          <path d="M892,580v56H836V580h56m4-4H832v64h64V576Z" fill="#202020"/>
        </g>
        <g>
          <rect x="898" y="578" width="60" height="60" fill="#4a4a4a"/>
          <path d="M956,580v56H900V580h56m4-4H896v64h64V576Z" fill="#202020"/>
        </g>
        <g>
          <rect x="66" y="642" width="60" height="60" fill="#4a4a4a"/>
          <path d="M124,644v56H68V644h56m4-4H64v64h64V640Z" fill="#202020"/>
        </g>
        <g>
          <rect x="130" y="642" width="60" height="60" fill="#4a4a4a"/>
          <path d="M188,644v56H132V644h56m4-4H128v64h64V640Z" fill="#202020"/>
        </g>
        <g>
          <rect x="194" y="642" width="60" height="60" fill="#4a4a4a"/>
          <path d="M252,644v56H196V644h56m4-4H192v64h64V640Z" fill="#202020"/>
        </g>
        <g>
          <rect x="258" y="642" width="60" height="60" fill="#4a4a4a"/>
          <path d="M316,644v56H260V644h56m4-4H256v64h64V640Z" fill="#202020"/>
        </g>
        <g>
          <rect x="322" y="642" width="60" height="60" fill="#4a4a4a"/>
          <path d="M380,644v56H324V644h56m4-4H320v64h64V640Z" fill="#202020"/>
        </g>
        <g>
          <rect x="386" y="642" width="60" height="60" fill="#4a4a4a"/>
          <path d="M444,644v56H388V644h56m4-4H384v64h64V640Z" fill="#202020"/>
        </g>
        <g>
          <rect x="450" y="642" width="60" height="60" fill="#4a4a4a"/>
          <path d="M508,644v56H452V644h56m4-4H448v64h64V640Z" fill="#202020"/>
        </g>
        <g>
          <rect x="514" y="642" width="60" height="60" fill="#4a4a4a"/>
          <path d="M572,644v56H516V644h56m4-4H512v64h64V640Z" fill="#202020"/>
        </g>
        <g>
          <rect x="578" y="642" width="60" height="60" fill="#4a4a4a"/>
          <path d="M636,644v56H580V644h56m4-4H576v64h64V640Z" fill="#202020"/>
        </g>
        <g>
          <rect x="642" y="642" width="60" height="60" fill="#4a4a4a"/>
          <path d="M700,644v56H644V644h56m4-4H640v64h64V640Z" fill="#202020"/>
        </g>
        <g>
          <rect x="706" y="642" width="60" height="60" fill="#4a4a4a"/>
          <path d="M764,644v56H708V644h56m4-4H704v64h64V640Z" fill="#202020"/>
        </g>
        <g>
          <rect x="770" y="642" width="60" height="60" fill="#4a4a4a"/>
          <path d="M828,644v56H772V644h56m4-4H768v64h64V640Z" fill="#202020"/>
        </g>
        <g>
          <rect x="834" y="642" width="60" height="60" fill="#4a4a4a"/>
          <path d="M892,644v56H836V644h56m4-4H832v64h64V640Z" fill="#202020"/>
        </g>
        <g>
          <rect x="898" y="642" width="60" height="60" fill="#4a4a4a"/>
          <path d="M956,644v56H900V644h56m4-4H896v64h64V640Z" fill="#202020"/>
        </g>
        <g>
          <rect x="66" y="706" width="60" height="60" fill="#4a4a4a"/>
          <path d="M124,708v56H68V708h56m4-4H64v64h64V704Z" fill="#202020"/>
        </g>
        <g>
          <rect x="130" y="706" width="60" height="60" fill="#4a4a4a"/>
          <path d="M188,708v56H132V708h56m4-4H128v64h64V704Z" fill="#202020"/>
        </g>
        <g>
          <rect x="194" y="706" width="60" height="60" fill="#4a4a4a"/>
          <path d="M252,708v56H196V708h56m4-4H192v64h64V704Z" fill="#202020"/>
        </g>
        <g>
          <rect x="258" y="706" width="60" height="60" fill="#4a4a4a"/>
          <path d="M316,708v56H260V708h56m4-4H256v64h64V704Z" fill="#202020"/>
        </g>
        <g>
          <rect x="322" y="706" width="60" height="60" fill="#4a4a4a"/>
          <path d="M380,708v56H324V708h56m4-4H320v64h64V704Z" fill="#202020"/>
        </g>
        <g>
          <rect x="386" y="706" width="60" height="60" fill="#4a4a4a"/>
          <path d="M444,708v56H388V708h56m4-4H384v64h64V704Z" fill="#202020"/>
        </g>
        <g>
          <rect x="450" y="706" width="60" height="60" fill="#4a4a4a"/>
          <path d="M508,708v56H452V708h56m4-4H448v64h64V704Z" fill="#202020"/>
        </g>
        <g>
          <rect x="514" y="706" width="60" height="60" fill="#4a4a4a"/>
          <path d="M572,708v56H516V708h56m4-4H512v64h64V704Z" fill="#202020"/>
        </g>
        <g>
          <rect x="578" y="706" width="60" height="60" fill="#4a4a4a"/>
          <path d="M636,708v56H580V708h56m4-4H576v64h64V704Z" fill="#202020"/>
        </g>
        <g>
          <rect x="642" y="706" width="60" height="60" fill="#4a4a4a"/>
          <path d="M700,708v56H644V708h56m4-4H640v64h64V704Z" fill="#202020"/>
        </g>
        <g>
          <rect x="706" y="706" width="60" height="60" fill="#4a4a4a"/>
          <path d="M764,708v56H708V708h56m4-4H704v64h64V704Z" fill="#202020"/>
        </g>
        <g>
          <rect x="770" y="706" width="60" height="60" fill="#4a4a4a"/>
          <path d="M828,708v56H772V708h56m4-4H768v64h64V704Z" fill="#202020"/>
        </g>
        <g>
          <rect x="834" y="706" width="60" height="60" fill="#4a4a4a"/>
          <path d="M892,708v56H836V708h56m4-4H832v64h64V704Z" fill="#202020"/>
        </g>
        <g>
          <rect x="898" y="706" width="60" height="60" fill="#4a4a4a"/>
          <path d="M956,708v56H900V708h56m4-4H896v64h64V704Z" fill="#202020"/>
        </g>
        <g>
          <rect x="66" y="770" width="60" height="60" fill="#4a4a4a"/>
          <path d="M124,772v56H68V772h56m4-4H64v64h64V768Z" fill="#202020"/>
        </g>
        <g>
          <rect x="130" y="770" width="60" height="60" fill="#4a4a4a"/>
          <path d="M188,772v56H132V772h56m4-4H128v64h64V768Z" fill="#202020"/>
        </g>
        <g>
          <rect x="194" y="770" width="60" height="60" fill="#4a4a4a"/>
          <path d="M252,772v56H196V772h56m4-4H192v64h64V768Z" fill="#202020"/>
        </g>
        <g>
          <rect x="258" y="770" width="60" height="60" fill="#4a4a4a"/>
          <path d="M316,772v56H260V772h56m4-4H256v64h64V768Z" fill="#202020"/>
        </g>
        <g>
          <rect x="322" y="770" width="60" height="60" fill="#4a4a4a"/>
          <path d="M380,772v56H324V772h56m4-4H320v64h64V768Z" fill="#202020"/>
        </g>
        <g>
          <rect x="386" y="770" width="60" height="60" fill="#4a4a4a"/>
          <path d="M444,772v56H388V772h56m4-4H384v64h64V768Z" fill="#202020"/>
        </g>
        <g>
          <rect x="450" y="770" width="60" height="60" fill="#4a4a4a"/>
          <path d="M508,772v56H452V772h56m4-4H448v64h64V768Z" fill="#202020"/>
        </g>
        <g>
          <rect x="514" y="770" width="60" height="60" fill="#4a4a4a"/>
          <path d="M572,772v56H516V772h56m4-4H512v64h64V768Z" fill="#202020"/>
        </g>
        <g>
          <rect x="578" y="770" width="60" height="60" fill="#4a4a4a"/>
          <path d="M636,772v56H580V772h56m4-4H576v64h64V768Z" fill="#202020"/>
        </g>
        <g>
          <rect x="642" y="770" width="60" height="60" fill="#4a4a4a"/>
          <path d="M700,772v56H644V772h56m4-4H640v64h64V768Z" fill="#202020"/>
        </g>
        <g>
          <rect x="706" y="770" width="60" height="60" fill="#4a4a4a"/>
          <path d="M764,772v56H708V772h56m4-4H704v64h64V768Z" fill="#202020"/>
        </g>
        <g>
          <rect x="770" y="770" width="60" height="60" fill="#4a4a4a"/>
          <path d="M828,772v56H772V772h56m4-4H768v64h64V768Z" fill="#202020"/>
        </g>
        <g>
          <rect x="834" y="770" width="60" height="60" fill="#4a4a4a"/>
          <path d="M892,772v56H836V772h56m4-4H832v64h64V768Z" fill="#202020"/>
        </g>
        <g>
          <rect x="898" y="770" width="60" height="60" fill="#4a4a4a"/>
          <path d="M956,772v56H900V772h56m4-4H896v64h64V768Z" fill="#202020"/>
        </g>
        <g>
          <rect x="66" y="834" width="60" height="60" fill="#4a4a4a"/>
          <path d="M124,836v56H68V836h56m4-4H64v64h64V832Z" fill="#202020"/>
        </g>
        <g>
          <rect x="130" y="834" width="60" height="60" fill="#4a4a4a"/>
          <path d="M188,836v56H132V836h56m4-4H128v64h64V832Z" fill="#202020"/>
        </g>
        <g>
          <rect x="194" y="834" width="60" height="60" fill="#4a4a4a"/>
          <path d="M252,836v56H196V836h56m4-4H192v64h64V832Z" fill="#202020"/>
        </g>
        <g>
          <rect x="258" y="834" width="60" height="60" fill="#4a4a4a"/>
          <path d="M316,836v56H260V836h56m4-4H256v64h64V832Z" fill="#202020"/>
        </g>
        <g>
          <rect x="322" y="834" width="60" height="60" fill="#4a4a4a"/>
          <path d="M380,836v56H324V836h56m4-4H320v64h64V832Z" fill="#202020"/>
        </g>
        <g>
          <rect x="386" y="834" width="60" height="60" fill="#4a4a4a"/>
          <path d="M444,836v56H388V836h56m4-4H384v64h64V832Z" fill="#202020"/>
        </g>
        <g>
          <rect x="450" y="834" width="60" height="60" fill="#4a4a4a"/>
          <path d="M508,836v56H452V836h56m4-4H448v64h64V832Z" fill="#202020"/>
        </g>
        <g>
          <rect x="514" y="834" width="60" height="60" fill="#4a4a4a"/>
          <path d="M572,836v56H516V836h56m4-4H512v64h64V832Z" fill="#202020"/>
        </g>
        <g>
          <rect x="578" y="834" width="60" height="60" fill="#4a4a4a"/>
          <path d="M636,836v56H580V836h56m4-4H576v64h64V832Z" fill="#202020"/>
        </g>
        <g>
          <rect x="642" y="834" width="60" height="60" fill="#4a4a4a"/>
          <path d="M700,836v56H644V836h56m4-4H640v64h64V832Z" fill="#202020"/>
        </g>
        <g>
          <rect x="706" y="834" width="60" height="60" fill="#4a4a4a"/>
          <path d="M764,836v56H708V836h56m4-4H704v64h64V832Z" fill="#202020"/>
        </g>
        <g>
          <rect x="770" y="834" width="60" height="60" fill="#4a4a4a"/>
          <path d="M828,836v56H772V836h56m4-4H768v64h64V832Z" fill="#202020"/>
        </g>
        <g>
          <rect x="834" y="834" width="60" height="60" fill="#4a4a4a"/>
          <path d="M892,836v56H836V836h56m4-4H832v64h64V832Z" fill="#202020"/>
        </g>
        <g>
          <rect x="898" y="834" width="60" height="60" fill="#4a4a4a"/>
          <path d="M956,836v56H900V836h56m4-4H896v64h64V832Z" fill="#202020"/>
        </g>
        <g>
          <rect x="130" y="898" width="60" height="60" fill="#4a4a4a"/>
          <path d="M188,900v56H132V900h56m4-4H128v64h64V896Z" fill="#202020"/>
        </g>
        <g>
          <rect x="194" y="898" width="60" height="60" fill="#4a4a4a"/>
          <path d="M252,900v56H196V900h56m4-4H192v64h64V896Z" fill="#202020"/>
        </g>
        <g>
          <rect x="258" y="898" width="60" height="60" fill="#4a4a4a"/>
          <path d="M316,900v56H260V900h56m4-4H256v64h64V896Z" fill="#202020"/>
        </g>
        <g>
          <rect x="322" y="898" width="60" height="60" fill="#4a4a4a"/>
          <path d="M380,900v56H324V900h56m4-4H320v64h64V896Z" fill="#202020"/>
        </g>
        <g>
          <rect x="386" y="898" width="60" height="60" fill="#4a4a4a"/>
          <path d="M444,900v56H388V900h56m4-4H384v64h64V896Z" fill="#202020"/>
        </g>
        <g>
          <rect x="450" y="898" width="60" height="60" fill="#4a4a4a"/>
          <path d="M508,900v56H452V900h56m4-4H448v64h64V896Z" fill="#202020"/>
        </g>
        <g>
          <rect x="514" y="898" width="60" height="60" fill="#4a4a4a"/>
          <path d="M572,900v56H516V900h56m4-4H512v64h64V896Z" fill="#202020"/>
        </g>
        <g>
          <rect x="578" y="898" width="60" height="60" fill="#4a4a4a"/>
          <path d="M636,900v56H580V900h56m4-4H576v64h64V896Z" fill="#202020"/>
        </g>
        <g>
          <rect x="642" y="898" width="60" height="60" fill="#4a4a4a"/>
          <path d="M700,900v56H644V900h56m4-4H640v64h64V896Z" fill="#202020"/>
        </g>
        <g>
          <rect x="706" y="898" width="60" height="60" fill="#4a4a4a"/>
          <path d="M764,900v56H708V900h56m4-4H704v64h64V896Z" fill="#202020"/>
        </g>
        <g>
          <rect x="770" y="898" width="60" height="60" fill="#4a4a4a"/>
          <path d="M828,900v56H772V900h56m4-4H768v64h64V896Z" fill="#202020"/>
        </g>
        <g>
          <rect x="834" y="898" width="60" height="60" fill="#4a4a4a"/>
          <path d="M892,900v56H836V900h56m4-4H832v64h64V896Z" fill="#202020"/>
        </g>
        <g>
          <rect x="450" y="962" width="60" height="60" fill="#4a4a4a"/>
          <path d="M508,964v56H452V964h56m4-4H448v64h64V960Z" fill="#202020"/>
        </g>
        <g>
          <rect x="514" y="962" width="60" height="60" fill="#4a4a4a"/>
          <path d="M572,964v56H516V964h56m4-4H512v64h64V960Z" fill="#202020"/>
        </g>
      </g>
    </g>
  </g>
</svg>
