<?xml version="1.0" encoding="UTF-8" standalone="no"?>
<!DOCTYPE svg PUBLIC "-//W3C//DTD SVG 1.1//EN" "http://www.w3.org/Graphics/SVG/1.1/DTD/svg11.dtd">
<svg width="100%" height="100%" viewBox="0 0 16 16" version="1.1" xmlns="http://www.w3.org/2000/svg" xmlns:xlink="http://www.w3.org/1999/xlink" xml:space="preserve" xmlns:serif="http://www.serif.com/" style="fill-rule:evenodd;clip-rule:evenodd;stroke-linejoin:round;stroke-miterlimit:2;">
    <g transform="matrix(-1,3.21625e-16,-3.21625e-16,-1,16,16)">
        <path d="M2,2L2,1L6,1L6,0L0,0L0,6L1,6L1,2L2,2Z"/>
    </g>
    <g transform="matrix(-1,-3.21625e-16,-3.21625e-16,1,16,0)">
        <path d="M2,2L2,1L6,1L6,0L0,0L0,6L1,6L1,2L2,2Z"/>
    </g>
    <g transform="matrix(-1.60812e-16,-1,1,-1.60812e-16,1.77636e-15,16)">
        <path d="M0,5L1,5L1,2L2,2L2,1L6,1L6,0L0,0L0,5Z"/>
    </g>
    <g transform="matrix(-1.60812e-16,1,1,1.60812e-16,3.55271e-15,-3.55271e-15)">
        <path d="M0,5L1,5L1,2L2,2L2,1L6,1L6,0L0,0L0,5Z"/>
    </g>
</svg>
