<?xml version="1.0" encoding="UTF-8" standalone="no"?>
<!DOCTYPE svg PUBLIC "-//W3C//DTD SVG 1.1//EN" "http://www.w3.org/Graphics/SVG/1.1/DTD/svg11.dtd">
<svg width="100%" height="100%" viewBox="0 0 16 16" version="1.1" xmlns="http://www.w3.org/2000/svg" xmlns:xlink="http://www.w3.org/1999/xlink" xml:space="preserve" xmlns:serif="http://www.serif.com/" style="fill-rule:evenodd;clip-rule:evenodd;stroke-linejoin:round;stroke-miterlimit:2;">
    <g transform="matrix(-1.83697e-16,1,-1,-1.83697e-16,16,1.77636e-15)">
        <path d="M2,2L2,1L6,1L6,0L0,0L0,6L1,6L1,2L2,2Z"/>
    </g>
    <g transform="matrix(-1.83697e-16,1,-1,-1.83697e-16,16,1.77636e-15)">
        <path d="M10,1L10,0L16,0L16,16L0,16L0,10L1,10L1,14L2,14L2,15L14,15L14,14L15,14L15,2L14,2L14,1L10,1Z"/>
    </g>
</svg>
