<?xml version="1.0" encoding="UTF-8" standalone="no"?>
<!DOCTYPE svg PUBLIC "-//W3C//DTD SVG 1.1//EN" "http://www.w3.org/Graphics/SVG/1.1/DTD/svg11.dtd">
<svg width="100%" height="100%" viewBox="0 0 16 16" version="1.1" xmlns="http://www.w3.org/2000/svg" xmlns:xlink="http://www.w3.org/1999/xlink" xml:space="preserve" xmlns:serif="http://www.serif.com/" style="fill-rule:evenodd;clip-rule:evenodd;stroke-linejoin:round;stroke-miterlimit:2;">
    <g transform="matrix(-1.83697e-16,1,1,1.83697e-16,0,-1.1628e-15)">
        <path d="M0,6L1,6L1,2L2,2L2,1L14,1L14,2L15,2L15,6L16,6L16,0L0,0L0,6Z"/>
    </g>
    <path d="M16,6L15,6L15,2L14,2L14,1L10,1L10,0L16,0L16,6Z"/>
    <g transform="matrix(1,0,0,-1,0,16)">
        <path d="M16,6L15,6L15,2L14,2L14,1L10,1L10,0L16,0L16,6Z"/>
    </g>
</svg>
