<?xml version="1.0" encoding="UTF-8" standalone="no"?>
<!DOCTYPE svg PUBLIC "-//W3C//DTD SVG 1.1//EN" "http://www.w3.org/Graphics/SVG/1.1/DTD/svg11.dtd">
<svg width="64px" height="64px" viewBox="0 0 14 13" version="1.1" xmlns="http://www.w3.org/2000/svg" xmlns:xlink="http://www.w3.org/1999/xlink" xml:space="preserve" xmlns:serif="http://www.serif.com/" style="fill-rule:evenodd;clip-rule:evenodd;stroke-linejoin:round;stroke-miterlimit:2;">
    <g id="Layer1">
        <path d="M1,6L2,6L2,5L3,5L3,4L4,4L4,3L5,3L5,5L8,5L8,8L5,8L5,10L4,10L4,9L3,9L3,8L2,8L2,7L1,7L1,6Z"/>
        <path d="M7,9L7,12L13,12L13,1L7,1L7,4L9,4L9,9L7,9Z"/>
    </g>
</svg>
